Genre: Adventure | Comedy | Fantasy
Language:English
IMDb:http://www.imdb.com/title/tt1320261/
Sourcegrin.gifVD5/Audio:T0XiC-iNK.Thx.
images and more info http://tracker.btarena.org/index.php




Subtitles:Romana


Format : MPEG-4
Format profile : Base Media
Codec ID : isom
File size : 749 MiB
Duration : 1h 21mn
Overall bit rate : 1 289 Kbps
Movie name : Gullivers Travels 2010 R5 x264 Feel-Free


Video
Format settings, CABAC : Yes
Format settings, ReFrames : 4 frames
Format settings, GOP : M=4, N=16
Codec ID : avc1
Codec ID/Info : Advanced Video Coding
Duration : 1h 21mn
Bit rate mode : Variable
Bit rate : 897 Kbps
Width : 720 pixels
Height : 304 pixels
Display aspect ratio : 2.35:1
Frame rate mode : Constant
Frame rate : 25.000 fps
Color space : YUV
Chroma subsampling : 4:2:0
Bit depth : 8 bits
Scan type : Progressive
Bits/(Pixel*Frame) : 0.164
Stream size : 522 MiB (70%)
Writing library : x264

Audio
ID : 2
Format : AAC
Format/Info : Advanced Audio Codec
Format version : Version 4
Format profile : LC
Codec ID : 40
Duration : 1h 21mn
Bit rate mode : Variable
Bit rate : 384 Kbps
Channel(s) : 6 channels
Channel positions : Front: L C R, Side: L R, LFE
Sampling rate : 48.0 KHz
Stream size : 223 MiB (30%)



Plot:
Travel writer Lemuel Gulliver takes an assignment in Bermuda, but ends up on the island of Liliput, where he towers over its tiny citizens

TRAILER: